<?xml version="1.0" encoding="UTF-8"?>
<svg version="1.1" xmlns="http://www.w3.org/2000/svg" width="100" height="100">
<path d="M0 0 C2.97554012 1.82462366 5.18307419 3.72550648 7.5078125 6.33203125 C10.35052187 8.80793941 12.79638012 8.15467689 16.4453125 8.01953125 C18.4453125 10.01953125 18.4453125 10.01953125 18.4453125 13.01953125 C20.0953125 13.01953125 21.7453125 13.01953125 23.4453125 13.01953125 C23.9403125 14.50453125 23.9403125 14.50453125 24.4453125 16.01953125 C26.42576809 16.68132972 26.42576809 16.68132972 28.4453125 17.01953125 C29.4453125 18.01953125 29.4453125 18.01953125 29.6328125 20.95703125 C29.4453125 24.01953125 29.4453125 24.01953125 27.4453125 26.01953125 C25.12256073 26.42000569 22.78791893 26.75924165 20.4453125 27.01953125 C21.4353125 30.31953125 22.4253125 33.61953125 23.4453125 37.01953125 C25.0953125 37.34953125 26.7453125 37.67953125 28.4453125 38.01953125 C28.4453125 38.34953125 28.4453125 38.67953125 28.4453125 39.01953125 C24.9803125 39.51453125 24.9803125 39.51453125 21.4453125 40.01953125 C21.9403125 40.94765625 21.9403125 40.94765625 22.4453125 41.89453125 C24.19695048 47.36839994 24.48992375 52.74037943 22.0703125 58.01953125 C18.74153163 60.55574524 15.9672266 60.81182682 11.890625 61.41796875 C9.11602248 61.90186546 9.11602248 61.90186546 6.4453125 64.64453125 C2.67936192 67.62590879 0.46974938 67.5139478 -4.1875 67.390625 C-6.66164152 67.00276453 -8.39348195 66.25948559 -10.5546875 65.01953125 C-11.4828125 65.82390625 -12.4109375 66.62828125 -13.3671875 67.45703125 C-18.9158011 72.2658297 -25.56437568 71.46884672 -32.5546875 71.01953125 C-38.39157686 69.29008255 -42.03449791 64.82948728 -45.5546875 60.01953125 C-46.7124381 56.54627944 -46.62335402 53.65885677 -46.5546875 50.01953125 C-47.4621875 50.08140625 -48.3696875 50.14328125 -49.3046875 50.20703125 C-52.84707582 50.00266269 -54.08122446 49.49299429 -56.5546875 47.01953125 C-56.5546875 46.35953125 -56.5546875 45.69953125 -56.5546875 45.01953125 C-57.4828125 44.83390625 -57.4828125 44.83390625 -58.4296875 44.64453125 C-60.5546875 44.01953125 -60.5546875 44.01953125 -62.5546875 42.01953125 C-61.2346875 42.01953125 -59.9146875 42.01953125 -58.5546875 42.01953125 C-58.6165625 40.80265625 -58.6784375 39.58578125 -58.7421875 38.33203125 C-58.74918647 34.34261871 -57.78296527 32.3619479 -55.5546875 29.01953125 C-54.83302559 26.70261671 -54.15409221 24.37104202 -53.5546875 22.01953125 C-52.8946875 22.01953125 -52.2346875 22.01953125 -51.5546875 22.01953125 C-51.5134375 21.40078125 -51.4721875 20.78203125 -51.4296875 20.14453125 C-51.1409375 19.44328125 -50.8521875 18.74203125 -50.5546875 18.01953125 C-47.7421875 16.89453125 -47.7421875 16.89453125 -44.5546875 16.01953125 C-43.93078125 15.6740625 -43.306875 15.32859375 -42.6640625 14.97265625 C-40.16141005 13.8418281 -38.34863927 13.88611383 -35.6171875 13.89453125 C-31.82169127 13.62888834 -31.82169127 13.62888834 -28.96875 11.3203125 C-28.15038989 9.91033538 -27.37123231 8.4768765 -26.6328125 7.0234375 C-21.70680831 -2.13250507 -8.86823971 -3.40355989 0 0 Z " fill="#C1E3DC" transform="translate(67.5546875,14.98046875)"/>
<path d="M0 0 C4.86555698 2.79300735 8.7867893 7.11281536 10.33984375 12.57421875 C10.625 14.5 10.625 14.5 10.75 17.5 C13.06 17.5 15.37 17.5 17.75 17.5 C17.75 18.16 17.75 18.82 17.75 19.5 C0.59 19.5 -16.57 19.5 -34.25 19.5 C-34.25 18.84 -34.25 18.18 -34.25 17.5 C-32.27 17.5 -30.29 17.5 -28.25 17.5 C-28.20875 16.51 -28.1675 15.52 -28.125 14.5 C-27.30305997 8.87199399 -23.84983464 4.76375846 -19.6484375 1.10546875 C-13.70018943 -2.88352225 -6.46620933 -2.76946633 0 0 Z " fill="#F6C857" transform="translate(62.25,52.5)"/>
<path d="M0 0 C2.875 0.25 2.875 0.25 6 1 C6.69937532 2.31647119 7.36729133 3.65022151 8 5 C10.55519921 5.81171228 10.55519921 5.81171228 13 6 C13 6.66 13 7.32 13 8 C14.32 8.33 15.64 8.66 17 9 C17.625 11.375 17.625 11.375 18 14 C15.61942515 16.38057485 14.9662949 16.29080802 11.7109375 16.44921875 C10.85113281 16.49240234 9.99132812 16.53558594 9.10546875 16.58007812 C8.20441406 16.61552734 7.30335937 16.65097656 6.375 16.6875 C5.49714844 16.73455078 4.61929688 16.78160156 3.71484375 16.83007812 C-1.65622629 17.07349215 -6.70607933 16.99636149 -12 16 C-13.5 13.9375 -13.5 13.9375 -14 12 C-13.38125 11.443125 -12.7625 10.88625 -12.125 10.3125 C-9.93893621 7.93354822 -9.01214301 6.03642904 -8 3 C-6.35 3.33 -4.7 3.66 -3 4 C-2.01 2.68 -1.02 1.36 0 0 Z " fill="#F4F2E5" transform="translate(78,24)"/>
<path d="M0 0 C4.86555698 2.79300735 8.7867893 7.11281536 10.33984375 12.57421875 C10.625 14.5 10.625 14.5 10.75 17.5 C13.06 17.5 15.37 17.5 17.75 17.5 C17.75 18.16 17.75 18.82 17.75 19.5 C0.59 19.5 -16.57 19.5 -34.25 19.5 C-34.25 18.84 -34.25 18.18 -34.25 17.5 C-32.27 17.5 -30.29 17.5 -28.25 17.5 C-28.20875 16.51 -28.1675 15.52 -28.125 14.5 C-27.30305997 8.87199399 -23.84983464 4.76375846 -19.6484375 1.10546875 C-13.70018943 -2.88352225 -6.46620933 -2.76946633 0 0 Z M-22.78515625 6.37109375 C-25.63049091 10.56380138 -26.25 12.16238668 -26.25 17.5 C-14.7 17.5 -3.15 17.5 8.75 17.5 C7.66298036 9.89086251 6.68129782 6.77325137 0.6875 2.125 C-7.29878582 -1.96260436 -17.08521432 -0.57616372 -22.78515625 6.37109375 Z " fill="#594036" transform="translate(62.25,52.5)"/>
<path d="M0 0 C2.0625 0.1875 2.0625 0.1875 4 1 C4.33 1.99 4.66 2.98 5 4 C6.32488113 4.36548445 7.66018514 4.6937566 9 5 C11.25 6.5625 11.25 6.5625 13 8 C12.453125 9.9453125 12.453125 9.9453125 11 12 C7.734375 12.6796875 7.734375 12.6796875 3.75 12.875 C2.44546875 12.95492187 1.1409375 13.03484375 -0.203125 13.1171875 C-3.93602915 13.00197441 -6.59756787 12.50989389 -10 11 C-10.875 8.875 -10.875 8.875 -11 7 C-10.01 6.67 -9.02 6.34 -8 6 C-7.26676204 3.98491642 -7.26676204 3.98491642 -7 2 C-6.21625 2.04125 -5.4325 2.0825 -4.625 2.125 C-1.83883881 2.28728734 -1.83883881 2.28728734 0 0 Z " fill="#F7F5E8" transform="translate(25,32)"/>
<path d="M0 0 C1.17825358 0.90172468 2.34231577 1.82201502 3.5 2.75 C4.1496875 3.26046875 4.799375 3.7709375 5.46875 4.296875 C7 6 7 6 7 10 C5.68 9.34 4.36 8.68 3 8 C2.67 10.64 2.34 13.28 2 16 C1.01 16 0.02 16 -1 16 C-1.33 13.36 -1.66 10.72 -2 8 C-3.98 8.99 -3.98 8.99 -6 10 C-6 6 -6 6 -4.6875 4.296875 C-4.130625 3.78640625 -3.57375 3.2759375 -3 2.75 C-2.1646875 1.96882813 -2.1646875 1.96882813 -1.3125 1.171875 C-0.879375 0.78515625 -0.44625 0.3984375 0 0 Z " fill="#228583" transform="translate(53,24)"/>
<path d="M0 0 C0.2475 0.639375 0.495 1.27875 0.75 1.9375 C1.784099 4.16351592 1.784099 4.16351592 3.875 4.5625 C4.57625 4.706875 5.2775 4.85125 6 5 C8.25 6.5625 8.25 6.5625 10 8 C9.125 12.875 9.125 12.875 8 14 C6.31391034 14.07205511 4.62499341 14.08386068 2.9375 14.0625 C2.01839844 14.05347656 1.09929688 14.04445313 0.15234375 14.03515625 C-0.55792969 14.02355469 -1.26820312 14.01195312 -2 14 C-2 13.67 -2 13.34 -2 13 C2.455 12.505 2.455 12.505 7 12 C7 10.68 7 9.36 7 8 C5.576875 7.3503125 5.576875 7.3503125 4.125 6.6875 C1 5 1 5 -1 2 C-3.38564077 2.57584432 -5.66682784 3.22227595 -8 4 C-8.99 4 -9.98 4 -11 4 C-11.33 4.99 -11.66 5.98 -12 7 C-12.99 7.495 -12.99 7.495 -14 8 C-13.67 9.32 -13.34 10.64 -13 12 C-11.35 12.33 -9.7 12.66 -8 13 C-8 13.33 -8 13.66 -8 14 C-13.75 14.125 -13.75 14.125 -16 13 C-16 11.02 -16 9.04 -16 7 C-15.01 6.67 -14.02 6.34 -13 6 C-12.896875 5.360625 -12.79375 4.72125 -12.6875 4.0625 C-12.460625 3.381875 -12.23375 2.70125 -12 2 C-7.94298942 0.11301833 -4.43457902 -0.21117043 0 0 Z " fill="#5F4B48" transform="translate(29,31)"/>
<path d="M0 0 C1.98 0 3.96 0 6 0 C6.33 0.66 6.66 1.32 7 2 C9.02463255 2.65213292 9.02463255 2.65213292 11 3 C11 3.66 11 4.32 11 5 C9.7625 5.12375 8.525 5.2475 7.25 5.375 C4.1237803 5.75746305 1.71120763 6.30549523 -1 8 C-1.33 7.01 -1.66 6.02 -2 5 C-3.94603274 4.40929986 -3.94603274 4.40929986 -6 4 C-6.66 3.34 -7.32 2.68 -8 2 C-5.36 1.67 -2.72 1.34 0 1 C0 0.67 0 0.34 0 0 Z " fill="#E9F8F6" transform="translate(13,55)"/>
<path d="M0 0 C2.60567359 1.18439708 4.15740208 2.82828445 6.0625 4.9375 C5.7325 5.9275 5.4025 6.9175 5.0625 7.9375 C3.7425 7.2775 2.4225 6.6175 1.0625 5.9375 C1.0625 5.2775 1.0625 4.6175 1.0625 3.9375 C0.4025 3.9375 -0.2575 3.9375 -0.9375 3.9375 C-0.9375 6.9075 -0.9375 9.8775 -0.9375 12.9375 C-1.2675 12.9375 -1.5975 12.9375 -1.9375 12.9375 C-1.9375 9.9675 -1.9375 6.9975 -1.9375 3.9375 C-2.9275 3.6075 -3.9175 3.2775 -4.9375 2.9375 C-2.52240566 -0.08136792 -2.52240566 -0.08136792 0 0 Z " fill="#149897" transform="translate(54.9375,26.0625)"/>
<path d="M0 0 C1.98 0 3.96 0 6 0 C6.33 0.99 6.66 1.98 7 3 C9.475 3.495 9.475 3.495 12 4 C12 4.33 12 4.66 12 5 C8.37 5 4.74 5 1 5 C1 4.34 1 3.68 1 3 C-1.97 3 -4.94 3 -8 3 C-8 2.67 -8 2.34 -8 2 C-5.36 1.67 -2.72 1.34 0 1 C0 0.67 0 0.34 0 0 Z " fill="#F1FAF8" transform="translate(84,49)"/>
</svg>
