<?xml version="1.0" encoding="UTF-8"?>
<svg version="1.1" xmlns="http://www.w3.org/2000/svg" width="512" height="512">
<path d="M0 0 C22.7522258 19.60300637 35.60237621 47.43601804 38.1328125 77.1796875 C39.58058325 99.35711463 34.57074304 121.14834637 24.38671875 140.8515625 C37.36137172 141.7710261 46.72676168 137.39882618 57.65478516 131.01025391 C65.08382055 126.73662905 70.63369769 125.8515625 79.38671875 125.8515625 C79.38671875 144.6615625 79.38671875 163.4715625 79.38671875 182.8515625 C74.43671875 183.8415625 69.48671875 184.8315625 64.38671875 185.8515625 C59.33913284 188.0562552 54.99546905 190.43350786 50.44921875 193.4765625 C40.66673026 199.65395065 28.98213236 200.04465722 17.76953125 198.48828125 C11.3831458 196.90781212 5.98150944 193.40153799 0.34667969 190.13134766 C-10.46722641 183.95379535 -22.12207692 181.75442401 -34.42578125 184.7890625 C-39.13712508 186.37741457 -43.27257462 188.86407102 -47.55078125 191.3515625 C-59.7147479 198.39786585 -72.33914936 201.37678399 -86.42578125 197.9765625 C-92.27993934 195.96296785 -97.64426448 192.61315801 -102.9309082 189.43212891 C-113.07043877 183.4732151 -124.92283623 181.92300886 -136.42578125 184.7890625 C-141.13705137 186.37738972 -145.27274485 188.8638806 -149.55078125 191.3515625 C-161.98962623 198.56462054 -175.12011495 201.41780718 -189.41796875 197.671875 C-194.07906765 195.93018324 -198.31180135 193.32622665 -202.61328125 190.8515625 C-204.55834155 189.74457516 -206.51702967 188.66120762 -208.48828125 187.6015625 C-209.35195312 187.12203125 -210.215625 186.6425 -211.10546875 186.1484375 C-216.36856145 184.20261704 -222.06725982 183.70479657 -227.61328125 182.8515625 C-227.61328125 164.0415625 -227.61328125 145.2315625 -227.61328125 125.8515625 C-215.39490269 125.8515625 -206.95593932 129.46306354 -196.73242188 135.62255859 C-189.9675296 139.53381892 -183.33208539 140.88671198 -175.61328125 141.8515625 C-175.99081543 140.99328857 -175.99081543 140.99328857 -176.37597656 140.11767578 C-183.34394845 124.12199697 -188.99256909 108.47439039 -189.61328125 90.8515625 C-189.65324219 89.93761719 -189.69320312 89.02367187 -189.734375 88.08203125 C-190.47147994 55.69277286 -177.45564179 26.63915644 -155.36328125 3.2890625 C-111.45516783 -38.62322758 -45.68680901 -37.56015688 0 0 Z " fill="#FEBD71" transform="translate(324.61328125,238.1484375)"/>
<path d="M0 0 C12.14640216 0 21.08148549 3.56901094 31.26757812 9.82592773 C40.72441009 15.52833933 51.16400897 16.25634679 62 15 C69.73107025 12.97927685 76.47028953 8.73815347 83.2109375 4.55078125 C92.85774741 -0.81306123 106.03691666 -0.68255735 116.62109375 1.875 C119.57159042 3.06616997 122.24829493 4.40377282 125 6 C126.04800781 6.60070312 127.09601563 7.20140625 128.17578125 7.8203125 C130.20313603 9.00355497 132.21696935 10.21054156 134.2109375 11.44921875 C143.85774741 16.81306123 157.03691666 16.68255735 167.62109375 14.125 C170.57159042 12.93383003 173.24829493 11.59622718 176 10 C177.57201172 9.09894531 177.57201172 9.09894531 179.17578125 8.1796875 C181.20313603 6.99644503 183.21696935 5.78945844 185.2109375 4.55078125 C194.85774741 -0.81306123 208.03691666 -0.68255735 218.62109375 1.875 C221.57159042 3.06616997 224.24829493 4.40377282 227 6 C228.04800781 6.60070312 229.09601563 7.20140625 230.17578125 7.8203125 C232.20313603 9.00355497 234.21696935 10.21054156 236.2109375 11.44921875 C245.28386758 16.49397119 256.24635655 16.19796771 266.28125 14.41796875 C273.14835213 12.35217841 279.11722464 8.75254858 285.26977539 5.15869141 C292.69634428 0.88286973 298.24896137 0 307 0 C307 18.81 307 37.62 307 57 C302.05 57.99 297.1 58.98 292 60 C286.95241409 62.2046927 282.6087503 64.58194536 278.0625 67.625 C268.28001151 73.80238815 256.59541361 74.19309472 245.3828125 72.63671875 C238.99642705 71.05624962 233.59479069 67.54997549 227.95996094 64.27978516 C217.14605484 58.10223285 205.49120433 55.90286151 193.1875 58.9375 C188.47615617 60.52585207 184.34070663 63.01250852 180.0625 65.5 C167.89853335 72.54630335 155.27413189 75.52522149 141.1875 72.125 C135.33334191 70.11140535 129.96901677 66.76159551 124.68237305 63.58056641 C114.54284248 57.6216526 102.69044502 56.07144636 91.1875 58.9375 C86.47622988 60.52582722 82.3405364 63.0123181 78.0625 65.5 C65.62365502 72.71305804 52.4931663 75.56624468 38.1953125 71.8203125 C33.5342136 70.07862074 29.3014799 67.47466415 25 65 C23.0549397 63.89301266 21.09625158 62.80964512 19.125 61.75 C18.26132813 61.27046875 17.39765625 60.7909375 16.5078125 60.296875 C11.2447198 58.35105454 5.54602143 57.85323407 0 57 C0 38.19 0 19.38 0 0 Z " fill="#9FCAF5" transform="translate(97,364)"/>
<path d="M0 0 C10.19266108 6.14891101 17.73773908 10.03543709 29.85546875 7.5078125 C34.85635637 5.78835398 39.30973957 3.1896258 43.85546875 0.5078125 C45.65886926 -0.44707446 47.47055454 -1.38660855 49.29296875 -2.3046875 C50.37384766 -2.87123047 50.37384766 -2.87123047 51.4765625 -3.44921875 C63.9249602 -8.90689065 82.00479609 -8.69758908 94.6484375 -4.04296875 C99.6609082 -1.61915527 104.51563991 1.11847052 109.23974609 4.06591797 C114.74058899 7.37189842 119.45708077 8.33893033 125.85546875 8.5078125 C125.4522995 14.82413078 123.14314744 19.15775234 119.85546875 24.5078125 C111.64754124 24.23421492 106.00383447 21.36650743 98.85546875 17.5078125 C96.67204825 16.39560065 94.48465126 15.29115375 92.29296875 14.1953125 C91.32230469 13.70417969 90.35164062 13.21304687 89.3515625 12.70703125 C80.91078191 8.65175795 68.7938212 9.33949003 59.73828125 11.12109375 C57.2720918 12.06356009 55.12994934 13.16464451 52.85546875 14.5078125 C51.69346619 15.16800236 50.53063451 15.82673402 49.3671875 16.484375 C47.51603794 17.53463177 45.67341427 18.59191858 43.84985352 19.68945312 C33.40644231 25.92576023 20.57277451 26.24030849 8.75 23.890625 C6.27493387 22.95366529 4.13534626 21.85416757 1.85546875 20.5078125 C0.69346619 19.84762264 -0.46936549 19.18889098 -1.6328125 18.53125 C-3.48396206 17.48099323 -5.32658573 16.42370642 -7.15014648 15.32617188 C-17.59355769 9.08986477 -30.42722549 8.77531651 -42.25 11.125 C-44.72506613 12.06195971 -46.86465374 13.16145743 -49.14453125 14.5078125 C-50.30653381 15.16800236 -51.46936549 15.82673402 -52.6328125 16.484375 C-54.48396206 17.53463177 -56.32658573 18.59191858 -58.15014648 19.68945312 C-63.54706678 22.91223654 -68.19618688 24.8037137 -74.51953125 24.6328125 C-75.39351562 24.61476563 -76.2675 24.59671875 -77.16796875 24.578125 C-77.82023438 24.55492187 -78.4725 24.53171875 -79.14453125 24.5078125 C-80.14894465 22.2179891 -81.14820737 19.9261526 -82.14453125 17.6328125 C-82.43070313 16.98183594 -82.716875 16.33085937 -83.01171875 15.66015625 C-85.14453125 10.734375 -85.14453125 10.734375 -85.14453125 8.5078125 C-84.28730469 8.47042969 -83.43007812 8.43304688 -82.546875 8.39453125 C-80.83177734 8.29591797 -80.83177734 8.29591797 -79.08203125 8.1953125 C-77.39400391 8.10830078 -77.39400391 8.10830078 -75.671875 8.01953125 C-67.94952634 6.89923482 -61.20567686 2.47066951 -54.4609375 -1.26367188 C-38.27094001 -10.03203399 -15.70827012 -9.53276047 0 0 Z " fill="#E49B52" transform="translate(228.14453125,355.4921875)"/>
<path d="M0 0 C6.94448827 1.98732944 11.80632619 5.0321381 17 10 C20.01064601 8.58322541 22.65370541 6.90968041 25.375 5 C31.11410416 1.15517532 35.96842421 -0.7812862 43 0 C46.27522945 2.15475621 46.90229594 3.6641423 48 7.4375 C48 11 48 11 46.625 13.6875 C44.16379059 15.85570829 42.65905887 16.6441948 39.6875 17.8125 C33.05298823 20.51868243 29.12422906 25.56062987 26 31.875 C24 35 24 35 20.625 36.625 C16.07623578 37.09556182 14.6418154 36.78947563 11 34 C9.37029791 31.54055402 7.935608 29.01022876 6.4921875 26.4375 C3.59583658 21.70628803 -0.23026062 19.30283725 -5.1875 16.9375 C-10.56871118 14.33967391 -10.56871118 14.33967391 -12 11 C-11.93108944 7.14100853 -11.52415508 4.78623262 -9.375 1.5625 C-5.94775201 -0.69226841 -4.0701345 -0.52517864 0 0 Z " fill="#3C3B4D" transform="translate(359,76)"/>
<path d="M0 0 C5.44940282 2.54929145 9.8576666 5.64014681 14 10 C14.6290625 9.45730469 15.258125 8.91460937 15.90625 8.35546875 C22.351976 2.96785138 27.25498462 -0.44641487 35.75 -1.4375 C39 -1 39 -1 41.375 0.5625 C43.50903182 3.76354773 43.86339823 6.17515054 44 10 C43.04906392 13.07586731 42.25584089 13.8605897 39.390625 15.421875 C37.83601563 16.07929687 37.83601563 16.07929687 36.25 16.75 C28.90098669 20.23111157 26.00475126 24.50785264 22.0625 31.375 C19.31249475 34.87500669 17.38185619 35.47115529 13 36 C9.3165917 35.09794082 7.59685712 33.88005973 5.46875 30.7421875 C4.43899613 28.98214901 3.42355122 27.21366814 2.421875 25.4375 C-0.43471868 20.54048227 -3.47587299 18.11288895 -8.625 16 C-11.61683626 14.75340156 -12.9168754 14.09290396 -15.125 11.625 C-16.26193885 8.21418346 -16.15942864 6.40582162 -15 3 C-10.84303134 -2.22973477 -5.94642724 -1.64365789 0 0 Z " fill="#3C3B4D" transform="translate(148,76)"/>
<path d="M0 0 C7.23070852 1.16694692 12.37747431 5.5313724 17.58984375 10.41796875 C20.54829643 9.0474606 22.97485714 7.43974032 25.52734375 5.41796875 C30.81641402 1.43172094 34.84493797 -0.06453722 41.5 0.1015625 C43.58984375 0.41796875 43.58984375 0.41796875 46.08984375 2.10546875 C47.8096617 4.75685475 48.51436907 6.24803231 48.58984375 9.41796875 C47.19405374 13.09515348 46.30127775 14.99295623 42.8828125 17.03515625 C41.85800781 17.45023438 40.83320312 17.8653125 39.77734375 18.29296875 C33.86924189 21.01155185 30.82951326 23.84619672 27.58984375 29.41796875 C24.69698661 34.34654018 24.69698661 34.34654018 21.58984375 36.41796875 C15.53721217 37.07825583 15.53721217 37.07825583 12.52734375 34.98046875 C10.8020604 32.69864238 9.26422562 30.38261119 7.71484375 27.98046875 C4.27217865 22.72587465 0.84506448 19.21507845 -5.09765625 16.85546875 C-8.49308796 15.38197952 -9.81143244 14.70945895 -11.41015625 11.41796875 C-11.95415433 7.7654102 -11.63072366 5.87915514 -10.03515625 2.54296875 C-6.58978675 -0.2461399 -4.33807504 -0.23569571 0 0 Z " fill="#3C3B4D" transform="translate(70.41015625,123.58203125)"/>
<path d="M0 0 C2.62178596 1.83712959 4.92079712 3.74046237 7.125 6.0625 C10.03381885 4.72341819 12.2995955 3.17395525 14.75 1.125 C19.17695406 -2.23651176 23.61367891 -4.12511096 29.125 -4.9375 C33.04796589 -4.36688678 34.45198232 -3.69735868 37.0625 -0.75 C38.47265249 2.98275658 38.18661447 5.24068791 37.125 9.0625 C35.32628475 11.08605465 33.57969493 11.88961219 31.0703125 12.84375 C24.69671218 15.33310231 21.73439319 18.30518571 18.125 24.0625 C14.35576923 29.90865385 14.35576923 29.90865385 11.125 32.0625 C7.63569538 32.51762669 5.72499645 32.39249805 2.625 30.6875 C0.26867604 28.21335984 -1.17606907 26.00095707 -2.875 23.0625 C-6.73223244 16.40267083 -10.80569646 13.85329663 -17.88671875 11.1875 C-20.353726 9.7916295 -20.96417107 8.72073443 -21.875 6.0625 C-21.55792683 0.03810976 -21.55792683 0.03810976 -19.5625 -2.8125 C-13.19199504 -7.05950331 -5.77707267 -3.78855336 0 0 Z " fill="#3C3B4D" transform="translate(421.875,129.9375)"/>
<path d="M0 0 C4.90552458 1.29478971 8.12821818 5.49514589 11.52755737 9.05487061 C12.80548912 10.34622421 12.80548912 10.34622421 14.10923767 11.66366577 C16.82136017 14.41387887 19.50412439 17.19090037 22.18771362 19.96893311 C24.01990166 21.8326799 25.85386722 23.69468105 27.68966675 25.55487061 C31.03159438 28.95528279 34.36924712 32.35945456 37.68356323 35.7868042 C38.35004379 36.47519379 39.01652435 37.16358337 39.70320129 37.87283325 C41.7610113 40.16221158 42.21901044 41.31310448 42.56271362 44.40643311 C42.16055848 48.50841558 41.43047808 49.95664063 38.25021362 52.59393311 C35.10458511 53.43465405 32.41128023 53.34646122 29.25021362 52.59393311 C25.65019267 50.23436702 22.82854355 47.2455338 19.87521362 44.13299561 C18.5994043 42.841642 18.5994043 42.841642 17.29782104 41.52420044 C14.59346771 38.77620342 11.92231466 35.99826439 9.25021362 33.21893311 C7.42281949 31.35495871 5.59341294 29.49295496 3.76193237 27.63299561 C0.42950863 24.2339403 -2.89732197 20.8300086 -6.19900513 17.40106201 C-6.86246948 16.71267242 -7.52593384 16.02428284 -8.20950317 15.31503296 C-10.2450111 13.04057306 -10.71714562 11.83873881 -11.12478638 8.78143311 C-10.74978638 5.59393311 -10.74978638 5.59393311 -8.74978638 2.71893311 C-5.65950031 0.52998048 -3.77825321 -0.11938748 0 0 Z " fill="#FFBD71" transform="translate(113.74978637695313,177.40606689453125)"/>
<path d="M0 0 C2.4375 1 2.4375 1 4 3 C5.53519604 7.7671877 5.53519604 7.7671877 5 11 C3.71713257 12.88989258 3.71713257 12.88989258 1.96240234 14.76953125 C1.32187927 15.46409424 0.6813562 16.15865723 0.02142334 16.87426758 C-0.97918121 17.92650513 -0.97918121 17.92650513 -2 19 C-2.60857849 19.65315186 -3.21715698 20.30630371 -3.84417725 20.97924805 C-7.87859588 25.28001847 -12.00282252 29.49385087 -16.1328125 33.70263672 C-17.63304234 35.23978423 -19.12423831 36.78579852 -20.60644531 38.34033203 C-22.76575442 40.60298699 -24.95312266 42.83483037 -27.1484375 45.0625 C-28.12857315 46.10760742 -28.12857315 46.10760742 -29.12850952 47.17382812 C-32.57058653 50.60214618 -34.86063352 52.43056866 -39.83056641 52.56640625 C-43.18210204 52.39330996 -43.85600266 52.11941243 -46.5625 49.875 C-48.33033071 46.33933859 -48.84034017 44.89612263 -48 41 C-46.66954041 39.2199707 -46.66954041 39.2199707 -44.93334961 37.30078125 C-44.29734833 36.59606689 -43.66134705 35.89135254 -43.006073 35.1652832 C-37.70667585 29.44530409 -32.2810515 23.85526232 -26.81225586 18.29736328 C-25.30611442 16.75935015 -23.80809448 15.2133437 -22.31811523 13.65966797 C-20.14903713 11.39948811 -17.95495539 9.16650291 -15.75390625 6.9375 C-15.0953212 6.24076172 -14.43673615 5.54402344 -13.75819397 4.82617188 C-9.13028044 0.21730356 -6.5315852 -0.88345744 0 0 Z " fill="#FFBD71" transform="translate(390,178)"/>
<path d="M0 0 C0.98459702 -0.0127597 1.96919403 -0.02551941 2.98362732 -0.03866577 C4.04098587 -0.04089142 5.09834442 -0.04311707 6.18774414 -0.04541016 C7.28002823 -0.05206696 8.37231232 -0.05872375 9.49769592 -0.06558228 C11.80671505 -0.07570309 14.1157634 -0.08039947 16.42480469 -0.08007812 C19.95630052 -0.0844521 23.48654745 -0.12078159 27.01782227 -0.15869141 C29.26195862 -0.16455948 31.5061009 -0.16852893 33.75024414 -0.17041016 C34.80557846 -0.18478119 35.86091278 -0.19915222 36.94822693 -0.21395874 C41.42949455 -0.18604234 44.24383963 -0.16479359 48.18212891 2.10058594 C50.74216506 5.12568465 50.96543661 7.37255576 51.03540039 11.29052734 C50.2394592 13.96778406 49.64114569 14.91736704 47.27038574 16.37783813 C44.68280929 17.43451312 42.75439393 17.55701182 39.96313477 17.58105469 C38.95528931 17.59381439 37.94744385 17.6065741 36.90905762 17.61972046 C35.28550354 17.62305893 35.28550354 17.62305893 33.62915039 17.62646484 C31.95387268 17.63645004 31.95387268 17.63645004 30.24475098 17.64663696 C27.88445686 17.65675769 25.52413416 17.66145416 23.16381836 17.66113281 C19.54892061 17.66551097 15.93523879 17.70185222 12.32055664 17.73974609 C10.02759207 17.74561327 7.7346217 17.74958333 5.44165039 17.75146484 C4.35928101 17.76583588 3.27691162 17.78020691 2.16174316 17.79501343 C0.64997498 17.78578354 0.64997498 17.78578354 -0.89233398 17.77636719 C-1.77739624 17.77921722 -2.6624585 17.78206726 -3.57434082 17.78500366 C-6.77486192 17.1229072 -7.95594515 15.82018317 -9.96459961 13.29052734 C-10.82505943 9.84868808 -11.29556226 7.40376534 -10.27709961 3.97802734 C-7.54879254 0.47020396 -4.25322389 0.03751657 0 0 Z " fill="#FFBE71" transform="translate(394.964599609375,314.70947265625)"/>
<path d="M0 0 C1.48196365 -0.00956978 1.48196365 -0.00956978 2.99386597 -0.01933289 C4.06468414 -0.02044571 5.13550232 -0.02155853 6.23876953 -0.02270508 C7.33625519 -0.02603348 8.43374084 -0.02936188 9.56448364 -0.03279114 C11.88966451 -0.0378611 14.21485267 -0.04019944 16.54003906 -0.04003906 C20.09989414 -0.04222302 23.65943818 -0.06037127 27.21923828 -0.0793457 C29.47574764 -0.08228008 31.73225847 -0.08426458 33.98876953 -0.08520508 C35.05553925 -0.09239059 36.12230896 -0.09957611 37.22140503 -0.10697937 C38.21568512 -0.10390274 39.20996521 -0.10082611 40.234375 -0.09765625 C41.10770477 -0.09908127 41.98103455 -0.10050629 42.88082886 -0.10197449 C45.45478362 0.16702223 47.05335553 0.79333719 49.24658203 2.14526367 C51.34337606 4.84114171 51.24169024 6.23820767 51.05908203 9.70776367 C50.27145921 13.04001406 49.9497659 14.19897129 47.24658203 16.14526367 C44.80696133 17.36507402 43.2199529 17.27860408 40.49316406 17.29052734 C39.50518829 17.2969072 38.51721252 17.30328705 37.4992981 17.30986023 C36.42847992 17.31097305 35.35766174 17.31208588 34.25439453 17.31323242 C33.15690887 17.31656082 32.05942322 17.31988922 30.92868042 17.32331848 C28.60349955 17.32838844 26.27831139 17.33072679 23.953125 17.33056641 C20.39326992 17.33275037 16.83372588 17.35089862 13.27392578 17.36987305 C11.01741643 17.37280743 8.7609056 17.37479192 6.50439453 17.37573242 C5.43762482 17.38291794 4.3708551 17.39010345 3.27175903 17.39750671 C2.27747894 17.39443008 1.28319885 17.39135345 0.25878906 17.38818359 C-0.61454071 17.38960861 -1.48787048 17.39103363 -2.38766479 17.39250183 C-4.96161956 17.12350511 -6.56019146 16.49719015 -8.75341797 15.14526367 C-10.850212 12.44938564 -10.74852618 11.05231967 -10.56591797 7.58276367 C-9.77829515 4.25051328 -9.45660184 3.09155606 -6.75341797 1.14526367 C-4.31379727 -0.07454668 -2.72678883 0.01192326 0 0 Z " fill="#FFBE71" transform="translate(62.75341796875,314.854736328125)"/>
<path d="M0 0 C2.95698918 0.72080159 4.11100414 2.17569477 6.03515625 4.49609375 C6.54309082 6.96228027 6.54309082 6.96228027 6.55273438 9.75195312 C6.56534302 10.79984009 6.57795166 11.84772705 6.59094238 12.92736816 C6.58284546 14.05348511 6.57474854 15.17960205 6.56640625 16.33984375 C6.57023315 17.50108765 6.57406006 18.66233154 6.57800293 19.85876465 C6.58072417 22.31324124 6.5733483 24.76774673 6.55664062 27.22216797 C6.5352359 30.98210216 6.55643713 34.74012534 6.58203125 38.5 C6.57938801 40.88411881 6.57426313 43.26823642 6.56640625 45.65234375 C6.57450317 46.77846069 6.5826001 47.90457764 6.59094238 49.06481934 C6.57833374 50.1127063 6.5657251 51.16059326 6.55273438 52.24023438 C6.54796082 53.62112244 6.54796082 53.62112244 6.54309082 55.02990723 C5.88076433 58.24571645 4.54586795 59.45082228 2.03515625 61.49609375 C-0.70701676 62.22448346 -3.19313221 62.0652337 -5.96484375 61.49609375 C-9.21045344 59.16591243 -10.22870676 57.3268291 -10.96484375 53.49609375 C-11.05786878 51.99632387 -11.10272115 50.49311247 -11.11010742 48.99047852 C-11.11648727 48.10598526 -11.12286713 47.221492 -11.12944031 46.31019592 C-11.13055313 45.36220627 -11.13166595 44.41421661 -11.1328125 43.4375 C-11.1378051 41.9655442 -11.1378051 41.9655442 -11.14289856 40.46385193 C-11.147957 38.39021269 -11.15030722 36.31656533 -11.15014648 34.24291992 C-11.15233317 31.07391945 -11.17050102 27.90526704 -11.18945312 24.73632812 C-11.19238724 22.72005327 -11.19437191 20.70377677 -11.1953125 18.6875 C-11.20249802 17.74153458 -11.20968353 16.79556915 -11.21708679 15.82093811 C-11.19819799 10.37128792 -10.76721937 6.39992114 -7.83984375 1.68359375 C-5.32032012 0.08789545 -2.93021006 0.08468815 0 0 Z " fill="#FFBD72" transform="translate(250.96484375,126.50390625)"/>
<path d="M0 0 C2.9375 2.0625 2.9375 2.0625 5 5 C5.74708597 11.33014782 3.73405985 16.01908682 1.25 21.6875 C0.90195312 22.52861328 0.55390625 23.36972656 0.1953125 24.23632812 C-3.23725633 32.25201201 -3.23725633 32.25201201 -7 35 C-9.74346497 35.72873288 -12.22637072 35.5638384 -15 35 C-17.66037025 33.15820521 -18.68922519 31.87524335 -19.765625 28.84375 C-20.09148734 24.88995366 -18.76836601 21.7857311 -17.3125 18.1875 C-17.0343042 17.47770996 -16.7561084 16.76791992 -16.46948242 16.03662109 C-9.63887723 -1.16331277 -9.63887723 -1.16331277 0 0 Z " fill="#FFBE70" transform="translate(315,164)"/>
<path d="M0 0 C0.69351563 0.28294922 1.38703125 0.56589844 2.1015625 0.85742188 C6.4434758 2.73309515 9.21312032 4.51603289 11.75 8.6875 C11.75 12.60766134 11.30226285 14.85910572 9.125 18.125 C5.94479006 20.21724338 3.40940373 20.21508275 -0.25 19.6875 C-3.94961945 18.56788787 -7.45524407 17.09643044 -11 15.5625 C-11.94488281 15.18351562 -12.88976562 14.80453125 -13.86328125 14.4140625 C-18.13435463 12.59141383 -20.69912931 11.46864456 -23.41796875 7.61328125 C-24.56815019 3.56874653 -24.03373489 1.46901796 -22.25 -2.3125 C-15.36696743 -7.72059702 -7.14241722 -3.10274208 0 0 Z " fill="#FFBE71" transform="translate(113.25,257.3125)"/>
<path d="M0 0 C2.14291019 3.21436529 2.30025791 5.17426609 2.4609375 8.96484375 C1.75798167 12.06857246 0.51162301 13.02521244 -2 15 C-5.02688498 16.61298186 -8.14498594 17.93930453 -11.3125 19.25 C-12.14201172 19.61351562 -12.97152344 19.97703125 -13.82617188 20.3515625 C-18.70698069 22.40096289 -22.6098764 23.58813929 -28 23 C-31.32635764 20.81160682 -31.90585122 19.37659512 -32.875 15.5 C-33.00182454 11.94891276 -32.90702346 10.85981036 -31 8 C-29.00048828 6.7355957 -29.00048828 6.7355957 -26.5703125 5.67578125 C-25.69246094 5.28712891 -24.81460937 4.89847656 -23.91015625 4.49804688 C-22.53150391 3.91120117 -22.53150391 3.91120117 -21.125 3.3125 C-20.21363281 2.90966797 -19.30226563 2.50683594 -18.36328125 2.09179688 C-7.34907412 -2.7218793 -7.34907412 -2.7218793 0 0 Z " fill="#FFBE71" transform="translate(406,254)"/>
<path d="M0 0 C4.38809956 3.31740326 6.08469191 8.02568748 8.1875 12.9375 C8.54263672 13.73607422 8.89777344 14.53464844 9.26367188 15.35742188 C13.47171702 24.99520268 13.47171702 24.99520268 12.25 30.1875 C11 33 11 33 8 35 C2.36363636 35.72727273 2.36363636 35.72727273 0 35 C-4.3082345 30.71848324 -6.57366774 26.15216729 -8.8125 20.5625 C-9.12380859 19.83740234 -9.43511719 19.11230469 -9.75585938 18.36523438 C-11.63198279 13.77594786 -12.52502246 10.03771548 -12 5 C-8.59008657 0.14345663 -5.84624621 -0.95665847 0 0 Z " fill="#FFBE71" transform="translate(190,164)"/>
</svg>
